PathFileType	4	(X/Y/Z)	../Python\walking\Walking19\task.trc
DataRate	CameraRate	NumFrames	NumMarkers	Units	OrigDataRate	OrigDataStartFrame	OrigNumFrames
200.000000	200.000000	6	30	mm	200.000000	0	571
Frame#	Time	RBAK			CLAV			STRN			RASI			LASI			PE01			RTH1			RTH2			RTH3			RTB2			RTB3			RD5M			RTOE			LTH3			LTB2			LTB3			LHEE			LTOE			LD5M			RHEE			LTH1			LTH2			C7			RTB1			LPSI			PE03			PE02			RPSI			T10			LTB1			
		X1	Y1	Z1	X2	Y2	Z2	X3	Y3	Z3	X4	Y4	Z4	X5	Y5	Z5	X6	Y6	Z6	X7	Y7	Z7	X8	Y8	Z8	X9	Y9	Z9	X10	Y10	Z10	X11	Y11	Z11	X12	Y12	Z12	X13	Y13	Z13	X14	Y14	Z14	X15	Y15	Z15	X16	Y16	Z16	X17	Y17	Z17	X18	Y18	Z18	X19	Y19	Z19	X20	Y20	Z20	X21	Y21	Z21	X22	Y22	Z22	X23	Y23	Z23	X24	Y24	Z24	X25	Y25	Z25	X26	Y26	Z26	X27	Y27	Z27	X28	Y28	Z28	X29	Y29	Z29	X30	Y30	Z30	

1	0	-1716.967895507813	1256.340087890625	281.5760803222657	-1547.289306640626	1265.524536132813	177.2956237792969	-1485.10888671875	1081.720458984375	180.9195098876954	-1521.986450195313	878.9092407226567	297.8214111328126	-1508.018188476563	879.0449218750005	71.3533630371094	-1712.582885742188	955.2978515625005	188.7575225830079	-1493.877075195313	596.4576416015627	330.1295166015626	-1447.81005859375	532.676208496094	315.7133178710939	-1444.238891601563	593.8768310546877	323.2223205566407	-1506.79248046875	289.9857482910157	316.9458312988282	-1487.56201171875	246.1453247070314	300.0164184570314	-1488.044189453125	40.93569183349611	313.1251220703126	-1452.506591796875	44.34837722778322	268.2148437500001	-1526.80615234375	587.5100708007815	65.6676940917969	-1658.770019531251	204.3257751464845	100.4988555908204	-1615.638916015626	228.8035583496095	104.2477722167969	-1710.622314453126	31.65040016174318	165.3413543701172	-1517.69873046875	25.16237449645998	172.8081359863282	-1556.664062500001	11.60089492797852	120.0688858032227	-1625.216430664063	83.14836883544925	237.0291137695314	-1569.240844726563	608.6313476562502	48.16972732543948	-1598.095092773438	555.474060058594	61.72452926635745	-1671.808593750001	1355.224609375	176.6315002441407	-1453.489501953125	316.8526916503907	306.1309814453126	-1712.525146484376	920.680541992188	144.2610931396485	-1724.625732421876	895.864624023438	159.3455200195313	-1727.161621093751	893.7637329101567	209.9164581298829	-1715.138916015626	918.4357910156255	233.5930633544923	-1695.284912109376	1057.44140625	180.9031066894532	-1644.921875000001	281.8348693847657	85.88040161132815	
2	0.005	-1710.998046875001	1255.864379882813	281.2775878906251	-1541.154174804688	1265.134521484375	177.4850769042969	-1479.052978515625	1081.285522460938	180.8041076660157	-1515.514892578125	878.7370605468755	297.3989257812501	-1501.976806640625	878.524291992188	70.98285675048831	-1706.341674804688	954.932983398438	188.8243103027344	-1486.663330078125	596.7116699218752	329.3384094238282	-1440.287841796875	533.2288818359377	314.6029052734376	-1437.04052734375	594.379821777344	322.3916015625001	-1493.04296875	287.9986267089845	316.4264526367189	-1472.425659179688	244.829559326172	299.6825256347657	-1465.420776367188	39.72504806518556	312.5872802734376	-1430.098388671875	44.4280242919922	267.4603576660157	-1523.314086914063	586.7613525390627	65.84284973144534	-1658.128784179688	204.4348297119142	100.4305725097657	-1614.971801757813	228.7887573242189	104.0945053100587	-1710.639648437501	31.81306266784669	165.3523712158204	-1517.636962890625	25.11462211608888	172.8012847900391	-1556.674072265626	11.65094470977784	120.0408020019532	-1604.311401367188	76.92887115478518	236.9442749023439	-1565.680297851563	608.2990722656252	48.1089897155762	-1595.047241210938	555.4467773437502	61.70562362670901	-1665.585449218751	1354.84765625	176.7135620117188	-1440.757080078125	316.6261596679689	305.647186279297	-1706.469604492188	920.3066406250005	144.3432922363282	-1718.561645507813	895.4689331054692	159.5171661376954	-1720.977539062501	893.4413452148442	210.1023254394532	-1708.904296875001	918.0612182617192	233.6648864746095	-1689.120971679688	1057.05712890625	180.7153015136719	-1643.969848632813	281.894256591797	85.79106903076175	
3	0.01	-1705.014770507813	1255.303344726563	280.9771118164064	-1535.010498046875	1264.64794921875	177.6522979736329	-1472.983642578125	1080.75	180.6734924316407	-1509.022094726563	878.4487304687505	297.0029602050782	-1495.9296875	877.9268188476567	70.63080596923831	-1700.075805664063	954.4699707031255	188.9388122558594	-1479.570922851563	596.7951660156252	328.5930175781251	-1432.9287109375	533.5899047851565	313.5245361328126	-1429.958984375	594.6902465820315	321.5657043457032	-1479.375366210938	285.9974365234376	315.8686523437501	-1457.369140625	243.5540466308595	299.3114624023439	-1442.838012695313	38.74038314819337	311.9419250488282	-1407.787475585938	44.72738647460939	266.6110839843751	-1519.823120117188	585.9831542968752	65.98310089111331	-1657.446044921876	204.5450897216798	100.3429946899415	-1614.258789062501	228.7672119140626	103.9216690063477	-1710.652099609376	31.97888374328615	165.3609466552735	-1517.580688476563	25.07552909851076	172.7760925292969	-1556.686157226563	11.70737648010254	119.9996719360352	-1583.250854492188	70.95062255859378	236.7373352050782	-1562.110229492188	607.9329223632815	48.03216552734378	-1591.984741210938	555.393493652344	61.65555953979495	-1659.356689453126	1354.380737304688	176.7851257324219	-1428.167846679688	316.3656616210939	305.1504821777345	-1700.406250000001	919.8450317382817	144.4683837890626	-1712.486938476563	894.9906616210942	159.7171936035157	-1714.781005859376	893.0175781250005	210.3148956298829	-1702.654663085938	917.576538085938	233.7648773193361	-1682.953002929688	1056.581787109375	180.5709838867188	-1642.959350585938	281.9479980468751	85.68339538574222	
4	0.015	-1699.016967773438	1254.658813476563	280.675262451172	-1528.856567382813	1264.065551757813	177.7982482910157	-1466.901123046875	1080.113891601563	180.5292358398438	-1502.509521484375	878.045043945313	296.6329956054689	-1489.878173828125	877.2556762695317	70.29593658447268	-1693.785278320313	953.9091186523442	189.1003417968751	-1472.594116210938	596.7031250000002	327.9016723632814	-1425.726440429688	533.7529296875002	312.4895019531251	-1422.98681640625	594.804382324219	320.7528686523439	-1465.796752929688	283.990447998047	315.2727966308595	-1442.404907226563	242.3277130126954	298.8996582031251	-1420.329956054688	37.99312973022462	311.1876525878907	-1385.606567382813	45.25579071044923	265.6681213378907	-1516.33349609375	585.1759033203127	66.07975769042972	-1656.721923828126	204.6578216552736	100.2394180297852	-1613.496459960938	228.7378540039064	103.7307662963868	-1710.659301757813	32.14923477172853	165.369125366211	-1517.529296875	25.04416275024415	172.7349090576172	-1556.699462890626	11.76787853240967	119.9475479125977	-1562.069580078126	65.24687194824222	236.3998413085939	-1558.529174804688	607.5335083007815	47.93969726562501	-1588.905151367188	555.3132934570315	61.57764053344729	-1653.120849609376	1353.82568359375	176.8464813232422	-1415.727661132813	316.0754394531251	304.6397399902345	-1694.335327148438	919.2961425781255	144.6361694335938	-1706.401733398438	894.4301147460942	159.9457550048829	-1708.571777343751	892.493041992188	210.5543365478517	-1696.389892578126	916.9824829101567	233.8926239013673	-1676.781127929688	1056.017333984375	180.4694824218751	-1641.890014648438	281.9972534179689	85.56075286865237	
5	0.02	-1693.003662109376	1253.932983398438	280.3727416992189	-1522.690673828125	1263.388427734375	177.9239959716797	-1460.8056640625	1079.37744140625	180.3729248046876	-1495.978759765625	877.5275878906255	296.2881469726564	-1483.823974609375	876.5144042968755	69.97663879394534	-1687.470092773438	953.2512817382817	189.3081054687501	-1465.728271484375	596.4316406250002	327.2724609375001	-1418.674682617188	533.7119750976565	311.5099182128907	-1416.1171875	594.718688964844	319.9633178710939	-1452.315673828125	281.9866943359376	314.6395568847657	-1427.546997070313	241.1595001220704	298.445281982422	-1397.932861328125	37.49187088012697	310.3251342773439	-1363.588745117188	46.01969146728517	264.6344299316407	-1512.843383789063	584.3405761718752	66.12383270263675	-1655.956420898438	204.7740478515626	100.1235580444337	-1612.682006835938	228.6996307373048	103.5238952636719	-1710.661254882813	32.3258628845215	165.3789367675782	-1517.482299804688	25.01903533935548	172.6812438964844	-1556.713134765626	11.82994651794434	119.8868637084962	-1540.805664062501	59.84945297241214	235.9259033203126	-1554.935302734376	607.1014404296877	47.83194732666017	-1585.805053710938	555.2048950195315	61.4760665893555	-1646.876464843751	1353.1845703125	176.8979797363282	-1403.44287109375	315.7604064941407	304.1145935058595	-1688.256591796876	918.660766601563	144.8463287353516	-1700.306152343751	893.7876586914067	160.2030639648438	-1702.349609375001	891.8688354492192	210.8209381103517	-1690.109985351563	916.2800292968755	234.0478668212892	-1670.605834960938	1055.365966796875	180.4097900390626	-1640.760864257813	282.0430603027345	85.42671203613284	
6	0.025	-1686.974121093751	1253.12841796875	280.0703430175782	-1516.51123046875	1262.618286132813	178.0307617187501	-1454.697143554688	1078.541748046875	180.2061004638672	-1489.431274414063	876.8986816406255	295.9669189453126	-1477.768310546875	875.7068481445317	69.67095184326175	-1681.130249023438	952.4977416992192	189.5612487792969	-1458.968994140625	595.9776611328127	326.7127990722657	-1411.767822265625	533.4617919921877	310.5982971191407	-1409.344970703125	594.4300537109377	319.2090148925782	-1438.941528320313	279.9957885742189	313.9699096679689	-1412.810668945313	240.0581054687501	297.948455810547	-1375.68505859375	37.24244308471681	309.3575744628907	-1341.768188476563	47.02277755737306	263.5152893066407	-1509.349243164063	583.478698730469	66.10659027099612	-1655.148681640626	204.8945465087892	99.99939727783209	-1611.812377929688	228.6514892578126	103.303695678711	-1710.658203125001	32.51087951660158	165.3924865722657	-1517.439086914063	24.99851226806642	172.6192169189454	-1556.726440429688	11.8909969329834	119.8203277587891	-1519.500366210938	54.78807449340823	235.3129119873048	-1551.326782226563	606.637390136719	47.70925521850587	-1582.680175781251	555.0667114257815	61.3556823730469	-1640.622070312501	1352.459838867188	176.9400634765626	-1391.319946289063	315.4257812500001	303.575408935547	-1682.170166015626	917.9400024414067	145.0984649658204	-1694.200195312501	893.064086914063	160.4894714355469	-1696.114013671876	891.1465454101567	211.1151580810548	-1683.814331054688	915.471069335938	234.2304840087892	-1664.427001953126	1054.630249023438	180.3906250000001	-1639.570190429688	282.0862731933595	85.2848815917969	
